# xmcd
#
# Track frame offsets:
#	150
#	13264
#	28961
#	47162
#	62897
#	76488
#	88350
#	104037
#	118274
#	131831
#	145226
#	163286
#
# Disc length: 2352 seconds
#
# Revision: 1
# Processed by: cddbd v1.5.2PL0 Copyright (c) Steve Scherf et al.
# Submitted via: audiograbber 1.83.01
#
DISCID=be092e0c
DTITLE=Rainer Bach - Ich bin nicht mehr der Alte
DYEAR=2014
DGENRE=Country
TTITLE0=Ich bin nicht mehr der Alte
TTITLE1=Wenn du bei mir bist
TTITLE2=Handysong
TTITLE3=Ich fang noch mal von vorne an
TTITLE4=Auf seiner Harley
TTITLE5=Ich wollte nie ein Sänger sein
TTITLE6=Allerbester Freund
TTITLE7=Halt Abstand
TTITLE8=Der letzte Flug
TTITLE9=Schlüssel vom Klavier
TTITLE10=Liebe geht leicht verloren
TTITLE11=Der wilde, wilde Westen
EXTD=
EXTT0=
EXTT1=
EXTT2=
EXTT3=
EXTT4=
EXTT5=
EXTT6=
EXTT7=
EXTT8=
EXTT9=
EXTT10=
EXTT11=
PLAYORDER=
